HIERARCHY
ROOT Hips
{
	OFFSET 0.00000 0.00000 0.00000
	CHANNELS 6 Xposition Yposition Zposition Zrotation Yrotation Xrotation 
	JOINT LHipJoint
	{
		OFFSET 0 0 0
		CHANNELS 3 Zrotation Yrotation Xrotation
		JOINT LeftHip
		{
			OFFSET 1.23340 -1.80723 0.69510
			CHANNELS 3 Zrotation Yrotation Xrotation
			JOINT LeftKnee
			{
				OFFSET 2.50056 -6.87023 0.00000
				CHANNELS 3 Zrotation Yrotation Xrotation
				JOINT LeftAnkle
				{
					OFFSET 2.85931 -7.85591 0.00000
					CHANNELS 3 Zrotation Yrotation Xrotation
					JOINT LeftToe
					{
						OFFSET 0.21001 -0.57700 2.07823
						CHANNELS 3 Zrotation Yrotation Xrotation
						End Site
						{
							OFFSET 0.00000 -0.00000 1.08338
						}
					}
				}
			}
		}
	}
	JOINT RHipJoint
	{
		OFFSET 0 0 0
		CHANNELS 3 Zrotation Yrotation Xrotation
		JOINT RightHip
		{
			OFFSET -1.40842 -1.80723 0.69510
			CHANNELS 3 Zrotation Yrotation Xrotation
			JOINT RightKnee
			{
				OFFSET -2.54876 -7.00266 0.00000
				CHANNELS 3 Zrotation Yrotation Xrotation
				JOINT RightAnkle
				{
					OFFSET -2.74835 -7.55104 0.00000
					CHANNELS 3 Zrotation Yrotation Xrotation
					JOINT RightToe
					{
						OFFSET -0.22633 -0.62184 2.00890
						CHANNELS 3 Zrotation Yrotation Xrotation
						End Site
						{
							OFFSET -0.00000 -0.00000 1.05493
						}
					}
				}
			}
		}
	}
	JOINT lowerback
	{
		OFFSET 0 0 0
		CHANNELS 3 Zrotation Yrotation Xrotation
		JOINT Chest
		{
			OFFSET -0.02340 2.02740 -0.12728
			CHANNELS 3 Zrotation Yrotation Xrotation
			JOINT Chest2
			{
				OFFSET -0.00862 2.03614 -0.01188
				CHANNELS 3 Zrotation Yrotation Xrotation
				JOINT lowerneck
				{
					OFFSET 0 0 0
					CHANNELS 3 Zrotation Yrotation Xrotation
					JOINT Neck
					{
						OFFSET 0.03380 1.76650 0.27670
						CHANNELS 3 Zrotation Yrotation Xrotation
						JOINT Head
						{
							OFFSET -0.01114 1.80516 -0.21451
							CHANNELS 3 Zrotation Yrotation Xrotation
							End Site
							{
								OFFSET -0.00766 1.81942 -0.10287
							}
						}
					}
				}
				JOINT LeftCollar
				{
					OFFSET 0 0 0
					CHANNELS 3 Zrotation Yrotation Xrotation
					JOINT LeftShoulder
					{
						OFFSET 3.22358 1.39475 0.18630
CHANNELS 3 Zrotation Xrotation Yrotation
						JOINT LeftElbow
						{
OFFSET 0 -5.450770 0.000000
CHANNELS 3 Zrotation Xrotation Yrotation
							JOINT LeftWrist
							{
OFFSET 0 -3.054880 0.000000
CHANNELS 3 Zrotation Xrotation Yrotation
								JOINT lhand
								{
									OFFSET 0 0 0
CHANNELS 3 Zrotation Xrotation Yrotation
									JOINT LFingers
									{
OFFSET 0 -0.638820 0.000000
CHANNELS 3 Zrotation Xrotation Yrotation
										End Site
										{
OFFSET 0 -0.515030 0.000000
										}
									}
								}
								JOINT LThumb
								{
OFFSET 0 0.000000 0.000000
CHANNELS 3 Zrotation Xrotation Yrotation
									End Site
									{
OFFSET 0 -0.522900 0.522900
									}
								}
							}
						}
					}
				}
				JOINT RightCollar
				{
					OFFSET 0 0 0
					CHANNELS 3 Zrotation Yrotation Xrotation
					JOINT RightShoulder
					{
						OFFSET -3.57143 1.14055 0.30691
CHANNELS 3 Zrotation Xrotation Yrotation
						JOINT RightElbow
						{
OFFSET 0 -4.887020 -0.000000
CHANNELS 3 Zrotation Xrotation Yrotation
							JOINT RightWrist
							{
OFFSET 0 -3.226030 0.000000
CHANNELS 3 Zrotation Xrotation Yrotation
								JOINT rhand
								{
									OFFSET 0 0 0
CHANNELS 3 Zrotation Xrotation Yrotation
									JOINT RFingers
									{
OFFSET 0 -0.716290 0.000000
CHANNELS 3 Zrotation Xrotation Yrotation
										End Site
										{
OFFSET 0 -0.577490 0.000000
										}
									}
								}
								JOINT RThumb
								{
OFFSET 0 0.000000 0.000000
CHANNELS 3 Zrotation Xrotation Yrotation
									End Site
									{
OFFSET 0 -0.586310 0.586310
									}
								}
							}
						}
					}
				}
			}
		}
	}
}
MOTION
Frames: 9
Frame Time: 0.008333333333333333
1.796464 18.464598 -0.189630 3.996167 53.432988 14.502783 0.000000 0.000000 0.000000 -27.852174 14.819918 -16.864598 0.753690 5.544862 15.469368 0.849098 9.228035 -23.080729 1.167647 -6.859484 -19.299733 0.000000 0.000000 0.000000 6.324927 24.853777 -8.446372 -0.030878 -1.133122 3.115188 0.357306 10.736571 6.218382 -0.031598 -1.145445 3.149176 -5.103195 -9.100615 -9.626764 0.402208 -11.558023 -4.213407 1.822441 -5.696271 1.980585 -9.939569 -10.995423 -12.651761 4.579085 -13.863067 14.972025 1.533369 -6.808051 7.702944 0.000000 0.000000 0.000000 -44.178111 -53.874099 -96.237787 27.941417 -39.062253 10.086760 30.210388 122.387585 34.619315 0.000000 0.000000 0.000000 -7.125000 0.000000 0.000000 -1.452722 -8.628711 -1.654674 0.000000 0.000000 0.000000 -47.309957 -62.217119 -3.913570 -44.316169 -50.429029 -21.710350 -21.700127 -33.716430 3.560961 0.000000 0.000000 0.000000 7.125000 0.000000 0.000000 4.032425 33.791344 1.110806
1.785432 18.463925 -0.187373 3.994681 53.231116 14.513461 0.000000 0.000000 0.000000 -27.899607 14.977149 -16.775925 0.721734 5.428712 15.135363 0.834907 9.281366 -23.002417 1.158128 -6.832026 -19.218766 0.000000 0.000000 0.000000 6.010270 25.532023 -9.143040 -0.058718 -1.563709 4.301369 0.383507 10.998337 5.640900 -0.026180 -1.039763 2.858215 -5.056481 -9.005948 -9.422500 0.425393 -11.452808 -4.329801 1.882149 -5.639410 1.737197 -10.151326 -11.040995 -12.526781 4.605733 -13.908602 15.117694 1.568817 -6.840986 7.751171 0.000000 0.000000 0.000000 -44.268454 -54.138602 -95.807272 28.069853 -39.180463 10.167774 30.197464 122.496094 34.141401 0.000000 0.000000 0.000000 -7.125000 0.000000 0.000000 -1.354875 -8.127630 -1.533186 0.000000 0.000000 0.000000 -47.744562 -62.023365 -3.952997 -44.450082 -50.496206 -21.813660 -21.739759 -33.361609 3.518660 0.000000 0.000000 0.000000 7.125000 0.000000 0.000000 3.997020 33.747226 1.105355
1.765244 18.464055 -0.183145 4.203480 53.359667 14.668334 0.000000 0.000000 0.000000 -27.916925 14.994309 -16.827196 0.728051 5.451805 15.201714 0.862299 8.862762 -22.891311 1.145729 -6.796488 -19.113970 0.000000 0.000000 0.000000 5.884291 25.675779 -9.164261 -0.061608 -1.601301 4.404927 0.367862 10.770252 5.480259 -0.030197 -1.121801 3.084066 -4.961622 -8.935629 -9.216691 0.217209 -11.376389 -4.210806 1.657904 -5.605152 1.684765 -9.780128 -10.852711 -12.904718 4.508090 -13.676572 15.333396 1.491330 -6.710234 7.835730 0.000000 0.000000 0.000000 -43.551559 -54.504074 -95.424616 28.419889 -39.499842 10.389710 30.308848 123.078844 32.986198 0.000000 0.000000 0.000000 -7.125000 0.000000 0.000000 -1.046707 -6.951483 -1.165881 0.000000 0.000000 0.000000 -48.931666 -61.539363 -5.190159 -44.686841 -50.614119 -21.996414 -21.080809 -33.848353 3.693071 0.000000 0.000000 0.000000 7.125000 0.000000 0.000000 4.548521 33.910758 1.240513
1.715854 18.468462 -0.175389 4.680422 54.364716 15.448439 0.000000 0.000000 0.000000 -27.962470 14.455927 -17.166424 0.718717 5.417445 15.103112 0.817758 8.481828 -22.181423 1.236486 -7.051322 -19.867668 0.000000 0.000000 0.000000 5.559603 25.074248 -10.029009 -0.077831 -1.799911 4.953107 0.374634 10.816631 5.024411 -0.017455 -0.852744 2.343699 -4.873544 -8.650174 -9.333507 -0.166513 -10.981514 -3.562624 1.201837 -5.430047 2.306616 -7.042870 -8.849923 -15.076894 3.019979 -11.054521 15.865142 0.844127 -5.404598 7.943161 0.000000 0.000000 0.000000 -37.236304 -54.456604 -93.723860 32.720622 -43.113297 13.231037 31.318843 124.215823 31.382782 0.000000 0.000000 0.000000 -7.125000 0.000000 0.000000 -0.151806 -5.548179 -0.165908 0.000000 0.000000 0.000000 -52.187912 -55.833264 -5.670906 -48.819602 -52.507796 -25.234606 -18.119943 -25.563386 4.349493 0.000000 0.000000 0.000000 7.125000 0.000000 0.000000 7.034008 34.488681 1.826292
1.672486 18.482518 -0.091190 4.536690 55.957264 15.957055 0.000000 0.000000 0.000000 -27.165474 13.429550 -17.174970 0.680144 5.273004 14.688946 0.787780 7.959191 -21.481460 1.318629 -7.273074 -20.526811 0.000000 0.000000 0.000000 6.095935 23.970351 -10.613555 -0.076495 -1.784517 4.910600 0.359021 10.577934 4.705004 -0.010357 -0.656062 1.802843 -4.712623 -7.819970 -9.953166 -0.018130 -9.856403 -3.127979 1.300459 -4.885574 3.028726 -0.805795 -1.970805 -17.061340 -1.809105 -2.112613 16.499290 -0.714266 -1.231343 7.901407 0.000000 0.000000 0.000000 -20.924089 -50.047496 -87.384621 41.441498 -48.900451 19.518870 32.132321 123.107787 30.063336 0.000000 0.000000 0.000000 -7.125000 0.000000 0.000000 0.577366 -4.372315 0.619745 0.000000 0.000000 0.000000 -51.817241 -41.035959 5.569516 -60.687016 -56.489139 -34.913549 -15.017193 -23.261020 5.877053 0.000000 0.000000 0.000000 7.125000 0.000000 0.000000 9.786570 35.916427 2.211286
1.669058 18.495867 0.093214 4.742875 59.061596 16.156297 0.000000 0.000000 0.000000 -25.812010 12.049939 -15.858208 0.611892 5.006670 13.927626 0.708733 7.612297 -20.444155 1.504290 -7.746662 -21.947253 0.000000 0.000000 0.000000 7.373246 21.312175 -10.513221 -0.090700 -1.942525 5.346950 0.381859 10.875856 4.037439 -0.012800 -0.730642 2.007850 -4.314081 -6.902424 -9.798457 0.130491 -8.691384 -3.346247 1.450025 -4.297495 2.608792 4.982787 5.005940 -16.105929 -5.543331 6.849009 17.495471 -1.843908 3.027877 8.468760 0.000000 0.000000 0.000000 -5.012851 -37.620601 -80.167815 52.289144 -53.877649 28.013083 33.385595 126.846065 28.060470 0.000000 0.000000 0.000000 -7.125000 0.000000 0.000000 1.699143 -2.562087 1.774135 0.000000 0.000000 0.000000 -44.071807 -20.786510 26.061030 -78.668958 -59.508886 -50.203237 -17.346581 -20.342623 4.876848 0.000000 0.000000 0.000000 7.125000 0.000000 0.000000 7.729743 35.003354 1.911718
1.665973 18.505407 0.330447 4.867572 62.345048 16.424973 0.000000 0.000000 0.000000 -24.191270 9.974219 -14.486459 0.555763 4.775274 13.268687 0.663520 7.583576 -19.970510 1.542478 -7.839823 -22.228563 0.000000 0.000000 0.000000 8.890025 18.460117 -10.325723 -0.091785 -1.953289 5.376493 0.395820 11.072741 3.771484 -0.057390 -1.545929 4.252253 -3.929014 -5.301428 -10.238238 0.215831 -6.581110 -3.019287 1.560582 -3.257174 3.026010 8.072465 7.974049 -14.976432 -7.819426 10.702562 16.467989 -2.618246 4.860232 8.454077 0.000000 0.000000 0.000000 5.391740 -24.412884 -75.782101 56.897970 -55.425014 31.773140 33.336690 132.593456 25.275236 0.000000 0.000000 0.000000 -7.125000 0.000000 0.000000 2.207421 0.525275 2.188903 0.000000 0.000000 0.000000 -32.986855 -2.758046 39.220862 -77.621806 -59.412461 -49.301309 -23.864592 -9.868112 -0.577308 0.000000 0.000000 0.000000 7.125000 0.000000 0.000000 2.116608 29.345424 0.808043
1.625259 18.522151 0.517170 7.494788 68.143680 19.416984 0.000000 0.000000 0.000000 -23.181003 7.794181 -13.769734 0.453369 4.319607 11.977630 0.579726 5.638976 -17.541062 1.807946 -8.453889 -24.101537 0.000000 0.000000 0.000000 9.801654 13.369524 -12.149854 -0.174106 -2.687460 7.409867 0.485459 12.426266 2.269809 -0.005419 -0.468797 1.288110 -3.660772 -4.375603 -10.008695 0.368095 -5.395985 -2.642977 1.736606 -2.677699 3.210629 8.912647 8.727288 -15.630558 -9.296487 11.686674 15.163140 -3.085574 5.232777 8.367024 0.000000 0.000000 0.000000 11.484831 -13.214055 -68.061259 58.206453 -55.812689 32.853100 34.575341 137.040060 25.164365 0.000000 0.000000 0.000000 -7.125000 0.000000 0.000000 2.963148 0.306628 2.951213 0.000000 0.000000 0.000000 -22.043722 7.761571 41.246979 -62.035854 -56.824924 -36.040941 -30.621787 -1.772753 -3.981251 0.000000 0.000000 0.000000 7.125000 0.000000 0.000000 -3.002759 25.354879 -1.430058
1.548068 18.536674 0.658425 9.896452 73.209877 22.582244 0.000000 0.000000 0.000000 -21.907197 5.689519 -14.751024 0.472628 4.409194 12.230760 0.561419 3.176754 -15.666509 1.760176 -8.345962 -23.770938 0.000000 0.000000 0.000000 11.441210 8.837219 -13.085838 -0.149423 -2.491114 6.865062 0.478721 12.460025 1.654916 -0.003081 0.353798 -0.972159 -2.902414 -3.387566 -9.369022 0.619053 -4.191345 -2.671819 1.777404 -2.071013 2.720021 9.205711 8.378304 -16.121394 -9.746270 11.058192 13.939207 -3.360645 4.913075 8.030723 0.000000 0.000000 0.000000 14.971955 -5.370390 -58.726495 57.396072 -55.575184 32.183583 34.105081 140.099152 24.451127 0.000000 0.000000 0.000000 -7.125000 0.000000 0.000000 2.817326 1.235878 2.760497 0.000000 0.000000 0.000000 -13.268601 11.196001 37.603819 -46.803519 -51.619293 -23.645062 -34.988600 0.924592 -7.296121 0.000000 0.000000 0.000000 7.125000 0.000000 0.000000 -5.920175 21.117069 -3.408350
